# xmcd CD database file
#
# Track frame offsets:
#	150
#	16933
#	30333
#	48378
#	65163
#	82975
#	101145
#	112963
#	128461
#	145707
#	160428
#
# Disc length: 2365 seconds
#
# Revision: 3
# Processed by: cddbd v1.5.2PL0 Copyright (c) Steve Scherf et al.
# Submitted via: CDex 1.70beta2
#
DISCID=86093b0b
DTITLE=Heidi Hauge - Country Time
DYEAR=2000
DGENRE=Country
TTITLE0=Mama he's crazy
TTITLE1=The bed you made for me
TTITLE2=I'm so afraid of loosing you again
TTITLE3=Mot ingenting
TTITLE4=Seven spanish angels
TTITLE5=Din samvittighet
TTITLE6=Here's som love
TTITLE7=Luftslott i det blå
TTITLE8=Texas (when i die)
TTITLE9=Tenk på hva det gjorde mot meg
TTITLE10=Are you still mine
EXTD=www.heidihauge.com/countrytime.htm YEAR: 2000
EXTT0=
EXTT1=
EXTT2=
EXTT3=
EXTT4=
EXTT5=
EXTT6=
EXTT7=
EXTT8=
EXTT9=
EXTT10=
PLAYORDER=
